<svg width="153" height="32" viewBox="0 0 153 32" fill="none" xmlns="http://www.w3.org/2000/svg">
<g clip-path="url(#clip0_28_6431)">
<path d="M147 0.5H6C2.96243 0.5 0.5 2.96243 0.5 6V26C0.5 29.0376 2.96243 31.5 6 31.5H147C150.038 31.5 152.5 29.0376 152.5 26V6C152.5 2.96243 150.038 0.5 147 0.5Z" fill="#24292E" style="fill:#24292E;fill:color(display-p3 0.1412 0.1608 0.1804);fill-opacity:1;"/>
<mask id="mask0_28_6431" style="mask-type:luminance" maskUnits="userSpaceOnUse" x="0" y="0" width="153" height="32">
<path d="M147 0.5H6C2.96243 0.5 0.5 2.96243 0.5 6V26C0.5 29.0376 2.96243 31.5 6 31.5H147C150.038 31.5 152.5 29.0376 152.5 26V6C152.5 2.96243 150.038 0.5 147 0.5Z" fill="white" style="fill:white;fill-opacity:1;"/>
</mask>
<g mask="url(#mask0_28_6431)">
<path fill-rule="evenodd" clip-rule="evenodd" d="M52.0097 18.76C52.1031 18.4666 52.1497 18.1566 52.1497 17.83V10.1H50.1597V17.71C50.1597 17.9033 50.1297 18.0833 50.0697 18.25C50.0164 18.3766 49.9531 18.4933 49.8797 18.6C49.8531 18.6333 49.8264 18.6633 49.7997 18.69C49.7397 18.7566 49.6764 18.8166 49.6097 18.87C49.5431 18.9166 49.4764 18.96 49.4097 19C49.2631 19.0733 49.0931 19.11 48.8997 19.11H48.2297C48.0097 19.11 47.8231 19.0566 47.6697 18.95C47.6164 18.9166 47.5697 18.8766 47.5297 18.83C47.5164 18.81 47.4997 18.79 47.4797 18.77C47.3397 18.5966 47.2431 18.39 47.1897 18.15H45.2197C45.2464 18.4433 45.3064 18.7233 45.3997 18.99C45.4331 19.0833 45.4697 19.1733 45.5097 19.26C45.6297 19.5266 45.7831 19.7666 45.9697 19.98C46.0297 20.04 46.0897 20.1 46.1497 20.16C46.2297 20.24 46.3097 20.3133 46.3897 20.38C46.5964 20.5333 46.8231 20.6633 47.0697 20.77C47.4164 20.9233 47.7964 21 48.2097 21H48.9997C49.2731 21 49.5431 20.9633 49.8097 20.89C49.9431 20.85 50.0764 20.8033 50.2097 20.75C50.5031 20.6233 50.7664 20.4633 50.9997 20.27C51.0731 20.21 51.1464 20.1433 51.2197 20.07C51.3264 19.9633 51.4231 19.85 51.5097 19.73C51.6631 19.5233 51.7931 19.3 51.8997 19.06C51.9397 18.9666 51.9764 18.8666 52.0097 18.76ZM60.9597 11.97H62.8497V10.1H60.9597V11.97ZM81.9797 10.19C81.7397 10.13 81.4931 10.1 81.2397 10.1H79.9897C79.6631 10.1 79.3497 10.1466 79.0497 10.24C78.9497 10.2733 78.8531 10.31 78.7597 10.35C78.4931 10.4633 78.2531 10.6033 78.0397 10.77C77.9397 10.85 77.8464 10.9366 77.7597 11.03C77.7464 11.0433 77.7331 11.0566 77.7197 11.07C77.4531 11.3433 77.2397 11.67 77.0797 12.05C77.0264 12.1633 76.9831 12.2833 76.9497 12.41C76.8631 12.69 76.8197 12.98 76.8197 13.28V17.83C76.8197 18.1433 76.8664 18.4466 76.9597 18.74C76.9931 18.8466 77.0331 18.9533 77.0797 19.06C77.2197 19.3733 77.3964 19.6566 77.6097 19.91C77.6564 19.9633 77.7064 20.0166 77.7597 20.07C77.8331 20.1433 77.9097 20.2133 77.9897 20.28C78.2164 20.4666 78.4731 20.6233 78.7597 20.75C78.8464 20.79 78.9364 20.8233 79.0297 20.85C79.3364 20.95 79.6564 21 79.9897 21H81.2397C81.4997 21 81.7531 20.9666 81.9997 20.9C82.1531 20.86 82.3031 20.81 82.4497 20.75C82.7431 20.6233 83.0064 20.4633 83.2397 20.27C83.3131 20.21 83.3864 20.1433 83.4597 20.07C83.5664 19.9633 83.6631 19.85 83.7497 19.73C83.9031 19.5233 84.0331 19.3 84.1397 19.06C84.1797 18.9666 84.2164 18.8666 84.2497 18.76C84.3431 18.4666 84.3897 18.1566 84.3897 17.83V13.28C84.3897 12.9666 84.3464 12.6666 84.2597 12.38C84.2264 12.2666 84.1864 12.1566 84.1397 12.05C84.0131 11.75 83.8531 11.48 83.6597 11.24C83.5931 11.1666 83.5264 11.0966 83.4597 11.03C83.3731 10.9433 83.2797 10.86 83.1797 10.78C82.9597 10.6066 82.7164 10.4633 82.4497 10.35C82.2964 10.2833 82.1397 10.23 81.9797 10.19ZM110.25 18.92C110.11 19.0466 109.913 19.11 109.66 19.11H108.31C108.09 19.11 107.9 19.0633 107.74 18.97C107.62 18.9033 107.516 18.8133 107.43 18.7C107.363 18.6266 107.31 18.5433 107.27 18.45C107.156 18.2366 107.1 17.99 107.1 17.71V13.38C107.1 13.1 107.156 12.85 107.27 12.63C107.316 12.55 107.37 12.4766 107.43 12.41C107.516 12.2966 107.616 12.21 107.73 12.15C107.896 12.05 108.09 12 108.31 12H109.66C109.92 12 110.126 12.0666 110.28 12.2C110.306 12.2266 110.333 12.2566 110.36 12.29C110.513 12.4833 110.616 12.72 110.67 13H112.69C112.643 12.5933 112.54 12.2133 112.38 11.86C112.24 11.56 112.066 11.2933 111.86 11.06C111.82 11.02 111.783 10.98 111.75 10.94C111.683 10.8733 111.61 10.81 111.53 10.75C111.323 10.5766 111.09 10.4333 110.83 10.32C110.476 10.1733 110.09 10.1 109.67 10.1H108.3C108.04 10.1 107.79 10.13 107.55 10.19C107.39 10.23 107.233 10.2833 107.08 10.35C106.84 10.4566 106.616 10.5866 106.41 10.74C106.29 10.8266 106.176 10.9233 106.07 11.03C106.023 11.0833 105.976 11.1366 105.93 11.19C105.71 11.4366 105.53 11.7233 105.39 12.05C105.35 12.15 105.313 12.2533 105.28 12.36C105.193 12.6533 105.15 12.96 105.15 13.28V17.83C105.15 18.1633 105.196 18.4833 105.29 18.79C105.323 18.8833 105.356 18.9733 105.39 19.06C105.503 19.3266 105.646 19.57 105.82 19.79C105.9 19.8833 105.983 19.9766 106.07 20.07C106.163 20.1566 106.26 20.24 106.36 20.32C106.573 20.4933 106.813 20.6366 107.08 20.75C107.226 20.81 107.376 20.86 107.53 20.9C107.776 20.9666 108.033 21 108.3 21H109.67C110.003 21 110.32 20.9466 110.62 20.84C110.686 20.82 110.753 20.7966 110.82 20.77C111.166 20.6233 111.466 20.43 111.72 20.19C111.726 20.1833 111.736 20.1733 111.75 20.16C111.79 20.12 111.833 20.0766 111.88 20.03C112.08 19.8033 112.246 19.5466 112.38 19.26C112.413 19.18 112.446 19.1033 112.48 19.03C112.58 18.75 112.65 18.4566 112.69 18.15H110.67C110.596 18.4166 110.486 18.6433 110.34 18.83C110.313 18.8633 110.283 18.8933 110.25 18.92ZM82.2697 12.63C82.3831 12.85 82.4397 13.1 82.4397 13.38V17.71C82.4397 17.99 82.3831 18.2366 82.2697 18.45C82.2297 18.5433 82.1764 18.6266 82.1097 18.7C82.0231 18.8066 81.9231 18.8933 81.8097 18.96C81.6431 19.06 81.4464 19.11 81.2197 19.11H80.0097C79.7897 19.11 79.5964 19.0633 79.4297 18.97C79.3097 18.9033 79.2064 18.8133 79.1197 18.7C79.0597 18.6266 79.0064 18.5433 78.9597 18.45C78.8464 18.2366 78.7897 17.99 78.7897 17.71V13.38C78.7897 13.1 78.8497 12.85 78.9697 12.63C79.0097 12.55 79.0597 12.4766 79.1197 12.41C79.2064 12.2966 79.3064 12.21 79.4197 12.15C79.5864 12.05 79.7831 12 80.0097 12H81.2197C81.4464 12 81.6464 12.05 81.8197 12.15C81.9264 12.2166 82.0231 12.3033 82.1097 12.41C82.1697 12.4766 82.2231 12.55 82.2697 12.63ZM96.3997 13.87C96.1464 14.0566 95.9464 14.27 95.7997 14.51V12.79H93.8097V21H95.7997V17.6C95.7997 17.2933 95.9031 16.9833 96.1097 16.67C96.3164 16.3633 96.5897 16.0833 96.9297 15.83C96.9631 15.81 96.9964 15.7866 97.0297 15.76C97.3364 15.5466 97.6731 15.37 98.0397 15.23C98.4464 15.0766 98.8397 15 99.2197 15H99.4297V13.01H99.2197C98.8797 13.01 98.5397 13.0433 98.1997 13.11C97.8597 13.17 97.5364 13.2666 97.2297 13.4C96.9297 13.5266 96.6531 13.6833 96.3997 13.87ZM116.51 13.87C116.263 14.0566 116.066 14.27 115.92 14.51V12.79H113.93V21H115.92V17.6C115.92 17.2933 116.023 16.9833 116.23 16.67C116.436 16.3633 116.706 16.0833 117.04 15.83C117.073 15.81 117.106 15.7866 117.14 15.76C117.453 15.5466 117.79 15.37 118.15 15.23C118.556 15.0766 118.953 15 119.34 15H119.55V13.01H119.34C119 13.01 118.656 13.0433 118.31 13.11C117.97 13.17 117.646 13.2666 117.34 13.4C117.04 13.5266 116.763 13.6833 116.51 13.87ZM58.0097 13.07C57.6431 12.9233 57.2264 12.85 56.7597 12.85H56.0997C55.6397 12.85 55.2231 12.9233 54.8497 13.07C54.4764 13.21 54.1597 13.41 53.8997 13.67C53.8464 13.7166 53.7997 13.7666 53.7597 13.82C53.5664 14.04 53.4164 14.3 53.3097 14.6C53.1764 14.96 53.1097 15.37 53.1097 15.83V18.02C53.1097 18.4666 53.1764 18.8766 53.3097 19.25C53.4097 19.5366 53.5531 19.79 53.7397 20.01C53.7864 20.0766 53.8397 20.1366 53.8997 20.19C53.9264 20.2233 53.9564 20.2533 53.9897 20.28C54.2364 20.4933 54.5231 20.6633 54.8497 20.79C55.2231 20.93 55.6397 21 56.0997 21H56.7597C57.2264 21 57.6431 20.93 58.0097 20.79C58.3364 20.67 58.6164 20.5033 58.8497 20.29C58.8897 20.2566 58.9264 20.2233 58.9597 20.19C58.9997 20.1433 59.0431 20.0966 59.0897 20.05C59.2831 19.8166 59.4364 19.55 59.5497 19.25C59.6897 18.8766 59.7597 18.4666 59.7597 18.02V15.83C59.7597 15.37 59.6897 14.96 59.5497 14.6C59.4364 14.2866 59.2764 14.0133 59.0697 13.78C59.0297 13.74 58.9931 13.7033 58.9597 13.67C58.9531 13.67 58.9497 13.6666 58.9497 13.66C58.6897 13.4066 58.3764 13.21 58.0097 13.07ZM60.9597 21H62.8497V12.85H60.9597V21ZM66.8897 14.78C67.0697 14.7066 67.2964 14.67 67.5697 14.67H67.9497C68.2431 14.67 68.4731 14.7066 68.6397 14.78C68.8131 14.8466 68.9464 14.94 69.0397 15.06C69.1264 15.1733 69.1864 15.3133 69.2197 15.48C69.2531 15.6466 69.2697 15.8266 69.2697 16.02V21H71.1397V15.64C71.1397 15.6 71.1397 15.56 71.1397 15.52C71.1264 15.22 71.0631 14.92 70.9497 14.62C70.8831 14.4266 70.7964 14.2466 70.6897 14.08C70.6097 13.9533 70.5164 13.8366 70.4097 13.73C70.1697 13.4633 69.8664 13.25 69.4997 13.09C69.1397 12.93 68.7264 12.85 68.2597 12.85H67.4297C67.0031 12.85 66.6031 12.92 66.2297 13.06V12.85H64.3597V21H66.2297V16.02C66.2297 15.8266 66.2464 15.6466 66.2797 15.48C66.3197 15.3133 66.3864 15.1733 66.4797 15.06C66.5797 14.94 66.7164 14.8466 66.8897 14.78ZM89.9697 19.08C89.8031 19.14 89.5864 19.17 89.3197 19.17H88.9697C88.6831 19.17 88.4531 19.1366 88.2797 19.07C88.1064 18.9966 87.9731 18.9 87.8797 18.78C87.8531 18.7533 87.8331 18.7233 87.8197 18.69C87.7531 18.59 87.7097 18.48 87.6897 18.36C87.6564 18.2 87.6397 18.0233 87.6397 17.83V12.85H85.7797V18.21C85.7797 18.25 85.7831 18.29 85.7897 18.33C85.7964 18.63 85.8564 18.93 85.9697 19.23C86.0431 19.43 86.1364 19.6166 86.2497 19.79C86.3231 19.91 86.4064 20.02 86.4997 20.12C86.7331 20.38 87.0297 20.5933 87.3897 20.76C87.7497 20.92 88.1697 21 88.6497 21H89.4597C89.6864 21 89.8997 20.9833 90.0997 20.95C90.2931 20.9166 90.4764 20.8633 90.6497 20.79V21H92.5197V12.85H90.6497V17.96C90.6497 18.1266 90.6264 18.2866 90.5797 18.44C90.5531 18.54 90.5097 18.63 90.4497 18.71C90.4231 18.75 90.3931 18.7866 90.3597 18.82C90.2664 18.9266 90.1364 19.0133 89.9697 19.08ZM120.7 14.85C120.606 15.13 120.56 15.43 120.56 15.75V18.23C120.56 18.63 120.626 19.0033 120.76 19.35C120.9 19.6766 121.083 19.9633 121.31 20.21C121.316 20.2166 121.323 20.2233 121.33 20.23C121.41 20.31 121.493 20.3833 121.58 20.45C121.76 20.5966 121.956 20.7166 122.17 20.81C122.276 20.8566 122.383 20.8966 122.49 20.93C122.716 20.9966 122.953 21.03 123.2 21.03H127.34V19.23H123.61C123.256 19.23 122.973 19.1533 122.76 19C122.74 18.98 122.72 18.96 122.7 18.94C122.526 18.78 122.44 18.5266 122.44 18.18V17.75H127.63V15.68C127.63 15.36 127.566 15.0333 127.44 14.7C127.353 14.4466 127.236 14.2133 127.09 14C127.036 13.9266 126.983 13.8566 126.93 13.79C126.89 13.7433 126.85 13.6966 126.81 13.65C126.616 13.4366 126.383 13.26 126.11 13.12C126.103 13.1133 126.096 13.1066 126.09 13.1C125.77 12.9333 125.406 12.85 125 12.85H123.18C122.86 12.85 122.54 12.9266 122.22 13.08C122.106 13.14 122 13.2033 121.9 13.27C121.706 13.3966 121.53 13.5466 121.37 13.72C121.35 13.7466 121.326 13.7733 121.3 13.8C121.086 14.0466 120.913 14.3266 120.78 14.64C120.746 14.7066 120.72 14.7766 120.7 14.85ZM135.67 21H137.48L139.87 12.85H138.09L136.55 17.99L135 12.85H133.21L131.69 18.02L130.12 12.85H128.35L130.81 21H132.6L134.12 15.86L135.67 21ZM55.5797 14.8C55.7331 14.7266 55.9064 14.69 56.0997 14.69H56.7597C56.9864 14.69 57.1864 14.74 57.3597 14.84C57.4464 14.8866 57.5264 14.9466 57.5997 15.02C57.6597 15.08 57.7131 15.1466 57.7597 15.22C57.8664 15.4066 57.9197 15.6233 57.9197 15.87V17.96C57.9197 18.2 57.8664 18.4133 57.7597 18.6C57.7131 18.68 57.6597 18.7533 57.5997 18.82C57.5197 18.9 57.4331 18.9666 57.3397 19.02C57.1664 19.1133 56.9731 19.16 56.7597 19.16H56.0997C55.9131 19.16 55.7464 19.1233 55.5997 19.05C55.4731 18.9966 55.3597 18.92 55.2597 18.82C55.1797 18.74 55.1131 18.6533 55.0597 18.56C54.9664 18.3866 54.9197 18.1866 54.9197 17.96V15.87C54.9197 15.6366 54.9697 15.4333 55.0697 15.26C55.1231 15.1733 55.1864 15.0933 55.2597 15.02C55.3597 14.9266 55.4664 14.8533 55.5797 14.8ZM125.77 16.23H122.46V16.15C122.46 15.9766 122.483 15.81 122.53 15.65C122.536 15.63 122.543 15.6133 122.55 15.6C122.61 15.42 122.686 15.2666 122.78 15.14C122.826 15.0733 122.88 15.0166 122.94 14.97C123 14.9166 123.063 14.87 123.13 14.83C123.176 14.8033 123.226 14.78 123.28 14.76C123.38 14.7266 123.483 14.71 123.59 14.71H124.59C124.796 14.71 124.976 14.7533 125.13 14.84C125.25 14.9066 125.356 15 125.45 15.12C125.47 15.14 125.49 15.1633 125.51 15.19C125.683 15.45 125.77 15.77 125.77 16.15V16.23Z" fill="white" style="fill:white;fill-opacity:1;"/>
<path d="M33 0H1V32H33V0Z" fill="#2F363D" style="fill:#2F363D;fill:color(display-p3 0.1843 0.2118 0.2392);fill-opacity:1;"/>
<mask id="mask1_28_6431" style="mask-type:luminance" maskUnits="userSpaceOnUse" x="1" y="0" width="32" height="32">
<path d="M33 0H1V32H33V0Z" fill="white" style="fill:white;fill-opacity:1;"/>
</mask>
<g mask="url(#mask1_28_6431)">
<mask id="mask2_28_6431" style="mask-type:luminance" maskUnits="userSpaceOnUse" x="8" y="2" width="20" height="20">
<path d="M28 2H8V22H28V2Z" fill="white" style="fill:white;fill-opacity:1;"/>
</mask>
<g mask="url(#mask2_28_6431)">
<path d="M25.5002 7.00003H23.8302L22.7702 5.94003C22.3702 5.54003 21.8902 5.34003 21.3302 5.33003H19.2502C19.1202 4.85003 18.8702 4.45003 18.4802 4.14003C18.1002 3.83003 17.6602 3.67003 17.1602 3.66003V8.96003C17.2102 9.83003 17.5202 10.58 18.1002 11.23C19.0702 12.15 20.2102 12.66 21.5502 12.75L24.4202 11.6C25.1402 11.31 25.6202 10.8 25.8602 10.06L26.3302 8.79003C26.3402 8.70003 26.3402 8.61003 26.3302 8.53003V7.83003C26.3302 7.27003 26.0502 7.00003 25.5002 7.00003ZM21.3302 8.66003C20.7702 8.66003 20.5002 8.38003 20.5002 7.83003C20.5002 7.27003 20.7702 7.00003 21.3302 7.00003C21.8802 7.00003 22.1602 7.27003 22.1602 7.83003C22.1602 8.38003 21.8802 8.66003 21.3302 8.66003Z" fill="white" style="fill:white;fill-opacity:1;"/>
<path d="M17.4802 11.78C16.8802 11.13 16.5202 10.37 16.3902 9.5H13.0002C12.5202 9.53 12.1202 9.37 11.7802 9.04C11.4502 8.7 11.3002 8.3 11.3302 7.83C11.3302 7.27 11.0502 7 10.5002 7C9.94016 7 9.66016 7.27 9.66016 7.83C9.67016 8.41 9.80016 8.97 10.0602 9.5C10.3502 10.05 10.7702 10.48 11.3302 10.77V20.33H13.8302V16.16H18.8302V20.33H21.3302V13.55C19.8302 13.44 18.5402 12.84 17.4802 11.78Z" fill="white" style="fill:white;fill-opacity:1;"/>
</g>
<path fill-rule="evenodd" clip-rule="evenodd" d="M6.19969 27.27H7.47969L7.64969 28H8.48969L7.30969 23.23H6.39969L5.17969 28H6.01969L6.19969 27.27ZM16.4097 24.43H15.7497V25.24H16.4097V28H17.2297V25.24H17.8897V24.43H17.2297V23.23H16.4097V24.43ZM18.9797 27.9C19.1397 27.9666 19.323 28 19.5297 28H21.1197V23.23H20.3397V24.52C20.1797 24.46 20.003 24.43 19.8097 24.43H19.5297C19.323 24.43 19.1397 24.4633 18.9797 24.53C18.8264 24.59 18.693 24.67 18.5797 24.77C18.573 24.7766 18.5664 24.7833 18.5597 24.79C18.5464 24.8033 18.5297 24.82 18.5097 24.84C18.423 24.94 18.353 25.06 18.2997 25.2C18.2397 25.3533 18.2097 25.53 18.2097 25.73V26.69C18.2097 26.89 18.2397 27.07 18.2997 27.23C18.353 27.3633 18.423 27.48 18.5097 27.58C18.523 27.6 18.5397 27.62 18.5597 27.64C18.5797 27.66 18.603 27.68 18.6297 27.7C18.7297 27.7866 18.8464 27.8533 18.9797 27.9ZM11.1197 24.53C10.953 24.4633 10.7697 24.43 10.5697 24.43H8.96969V29.21H9.77969V27.9C9.95302 27.9666 10.1397 28 10.3397 28H10.5697C10.7697 28 10.953 27.9666 11.1197 27.9C11.2597 27.8533 11.3797 27.78 11.4797 27.68C11.4997 27.6666 11.5164 27.6533 11.5297 27.64C11.5497 27.62 11.573 27.5966 11.5997 27.57C11.6797 27.47 11.743 27.3566 11.7897 27.23C11.8497 27.07 11.8797 26.89 11.8797 26.69V25.73C11.8797 25.53 11.8497 25.3533 11.7897 25.2C11.743 25.0666 11.6764 24.95 11.5897 24.85C11.5697 24.83 11.5497 24.81 11.5297 24.79C11.4164 24.6766 11.2797 24.59 11.1197 24.53ZM12.3697 25.31C12.323 25.43 12.2997 25.56 12.2997 25.7V26.78C12.2997 26.96 12.3297 27.1233 12.3897 27.27C12.4497 27.4166 12.5297 27.5433 12.6297 27.65C12.6364 27.6566 12.6397 27.66 12.6397 27.66C12.673 27.6933 12.7097 27.7266 12.7497 27.76C12.8297 27.82 12.9164 27.87 13.0097 27.91C13.0564 27.9366 13.103 27.9566 13.1497 27.97C13.2497 27.9966 13.353 28.01 13.4597 28.01H15.2697V27.22H13.6397C13.4864 27.22 13.363 27.1866 13.2697 27.12C13.2564 27.1133 13.2464 27.1066 13.2397 27.1C13.1664 27.0266 13.1297 26.9133 13.1297 26.76V26.57H15.3997V25.67C15.3997 25.53 15.373 25.3866 15.3197 25.24C15.2797 25.1333 15.2264 25.0333 15.1597 24.94C15.1397 24.9066 15.1164 24.8733 15.0897 24.84C15.0764 24.82 15.0597 24.8 15.0397 24.78C14.953 24.6866 14.8497 24.61 14.7297 24.55C14.7297 24.5433 14.7264 24.54 14.7197 24.54C14.5864 24.4666 14.4297 24.43 14.2497 24.43H13.4497C13.3097 24.43 13.1697 24.4633 13.0297 24.53C12.983 24.5566 12.9364 24.5833 12.8897 24.61C12.803 24.67 12.7264 24.7366 12.6597 24.81C12.6464 24.8233 12.6364 24.8366 12.6297 24.85C12.5364 24.9566 12.4597 25.0766 12.3997 25.21C12.3864 25.2433 12.3764 25.2766 12.3697 25.31ZM23.6797 24.53C23.5197 24.4633 23.3364 24.43 23.1297 24.43H22.8497C22.643 24.43 22.4597 24.4633 22.2997 24.53C22.133 24.59 21.993 24.6766 21.8797 24.79C21.8597 24.81 21.8397 24.83 21.8197 24.85C21.733 24.95 21.6664 25.0666 21.6197 25.2C21.5664 25.3533 21.5397 25.53 21.5397 25.73V26.69C21.5397 26.89 21.5664 27.07 21.6197 27.23C21.6664 27.3566 21.7297 27.47 21.8097 27.57C21.8297 27.5966 21.853 27.62 21.8797 27.64C21.893 27.6533 21.9064 27.6666 21.9197 27.68C22.0264 27.7733 22.153 27.8466 22.2997 27.9C22.4597 27.9666 22.643 28 22.8497 28H23.1297C23.3364 28 23.5197 27.9666 23.6797 27.9C23.8197 27.8533 23.943 27.78 24.0497 27.68C24.063 27.6666 24.0764 27.6533 24.0897 27.64C24.1097 27.62 24.1297 27.6 24.1497 27.58C24.2364 27.48 24.3064 27.3633 24.3597 27.23C24.4197 27.07 24.4497 26.89 24.4497 26.69V25.73C24.4497 25.53 24.4197 25.3533 24.3597 25.2C24.3064 25.06 24.233 24.94 24.1397 24.84C24.1264 24.82 24.1097 24.8033 24.0897 24.79C23.9764 24.6766 23.8397 24.59 23.6797 24.53ZM27.8297 28V24.43H26.0197C25.893 24.43 25.7697 24.45 25.6497 24.49C25.6297 24.4966 25.6064 24.5033 25.5797 24.51C25.5264 24.5366 25.473 24.5633 25.4197 24.59C25.3464 24.6366 25.283 24.69 25.2297 24.75C25.123 24.8633 25.0397 24.9966 24.9797 25.15C24.9197 25.3033 24.8897 25.4833 24.8897 25.69V26.62C24.8897 26.8266 24.9197 27.01 24.9797 27.17C25.0397 27.3233 25.123 27.4533 25.2297 27.56C25.283 27.62 25.343 27.67 25.4097 27.71C25.463 27.75 25.5197 27.78 25.5797 27.8C25.6064 27.8066 25.6297 27.8166 25.6497 27.83C25.7697 27.8633 25.893 27.88 26.0197 27.88H27.0697V27.92C27.0697 28.0466 27.0397 28.15 26.9797 28.23C26.9597 28.2566 26.9397 28.28 26.9197 28.3C26.893 28.3266 26.863 28.35 26.8297 28.37C26.7497 28.41 26.6597 28.43 26.5597 28.43H25.0897V29.21H26.6997C26.8664 29.21 27.0197 29.18 27.1597 29.12C27.2597 29.0866 27.3497 29.0366 27.4297 28.97C27.4564 28.9433 27.483 28.9166 27.5097 28.89C27.6097 28.7833 27.6864 28.6566 27.7397 28.51C27.7997 28.3633 27.8297 28.1933 27.8297 28ZM7.31969 26.56H6.36969L6.82969 24.61H6.87969L7.31969 26.56ZM26.1997 25.21H27.0597V27.11H26.1997C26.1597 27.11 26.1197 27.1033 26.0797 27.09C26.053 27.0833 26.0264 27.0733 25.9997 27.06C25.9797 27.0533 25.963 27.0433 25.9497 27.03C25.9097 27.0033 25.873 26.9733 25.8397 26.94C25.793 26.8866 25.7564 26.8266 25.7297 26.76C25.7297 26.7533 25.7264 26.75 25.7197 26.75C25.6997 26.6833 25.6897 26.61 25.6897 26.53V25.78C25.6897 25.7 25.703 25.6266 25.7297 25.56C25.7497 25.52 25.7697 25.48 25.7897 25.44C25.803 25.42 25.8197 25.4 25.8397 25.38C25.8797 25.3333 25.923 25.2966 25.9697 25.27C25.983 25.2633 25.993 25.26 25.9997 25.26C26.0264 25.24 26.0564 25.2266 26.0897 25.22C26.123 25.2133 26.1597 25.21 26.1997 25.21ZM9.77969 26.67V25.24H10.5697C10.663 25.24 10.7497 25.26 10.8297 25.3C10.8697 25.32 10.9064 25.3466 10.9397 25.38C10.9664 25.4066 10.9897 25.44 11.0097 25.48C11.0564 25.56 11.0797 25.65 11.0797 25.75V26.67C11.0797 26.77 11.0597 26.86 11.0197 26.94C10.9997 26.98 10.973 27.0133 10.9397 27.04C10.8997 27.08 10.8597 27.11 10.8197 27.13C10.7464 27.17 10.663 27.19 10.5697 27.19H10.2897C10.1897 27.19 10.103 27.17 10.0297 27.13C9.98969 27.1033 9.95302 27.0733 9.91969 27.04C9.89302 27.0133 9.87302 26.9866 9.85969 26.96C9.80635 26.8733 9.77969 26.7766 9.77969 26.67ZM20.3397 25.75V27.19H19.5297C19.443 27.19 19.363 27.1733 19.2897 27.14C19.2364 27.12 19.1897 27.0866 19.1497 27.04C19.103 27.0066 19.0697 26.9666 19.0497 26.92C19.0097 26.8466 18.9897 26.7633 18.9897 26.67V25.75C18.9897 25.6566 19.0097 25.5733 19.0497 25.5C19.0764 25.4533 19.1097 25.4133 19.1497 25.38C19.1897 25.34 19.233 25.31 19.2797 25.29C19.353 25.2566 19.4364 25.24 19.5297 25.24H19.8097C19.903 25.24 19.9864 25.2566 20.0597 25.29C20.1064 25.31 20.1497 25.34 20.1897 25.38C20.223 25.4133 20.253 25.45 20.2797 25.49C20.3197 25.57 20.3397 25.6566 20.3397 25.75ZM22.6197 25.28C22.6864 25.2533 22.763 25.24 22.8497 25.24H23.1297C23.2297 25.24 23.3164 25.26 23.3897 25.3C23.4297 25.32 23.4664 25.3466 23.4997 25.38C23.5264 25.4066 23.5497 25.4366 23.5697 25.47C23.6164 25.55 23.6397 25.6433 23.6397 25.75V26.67C23.6397 26.7766 23.6164 26.87 23.5697 26.95C23.5497 26.9833 23.5264 27.0133 23.4997 27.04C23.4664 27.08 23.4297 27.11 23.3897 27.13C23.3164 27.17 23.2297 27.19 23.1297 27.19H22.8497C22.763 27.19 22.6864 27.1733 22.6197 27.14C22.5664 27.12 22.5197 27.0866 22.4797 27.04C22.4464 27.0066 22.4164 26.97 22.3897 26.93C22.3497 26.8566 22.3297 26.77 22.3297 26.67V25.75C22.3297 25.65 22.3497 25.5633 22.3897 25.49C22.4164 25.45 22.4464 25.4133 22.4797 25.38C22.5197 25.34 22.5664 25.3066 22.6197 25.28ZM14.5797 25.91H13.1397V25.87C13.1397 25.7966 13.1497 25.7266 13.1697 25.66C13.1697 25.6533 13.1697 25.6433 13.1697 25.63C13.1964 25.5566 13.233 25.49 13.2797 25.43C13.2997 25.4033 13.323 25.38 13.3497 25.36C13.3697 25.3333 13.3964 25.3133 13.4297 25.3C13.4497 25.2866 13.4697 25.2766 13.4897 25.27C13.5364 25.25 13.583 25.24 13.6297 25.24H14.0697C14.1564 25.24 14.2364 25.26 14.3097 25.3C14.3564 25.3333 14.3997 25.3733 14.4397 25.42C14.453 25.4333 14.463 25.4466 14.4697 25.46C14.543 25.5733 14.5797 25.71 14.5797 25.87V25.91Z" fill="white" style="fill:white;fill-opacity:1;"/>
</g>
<path d="M33 -0.5H0C-0.276142 -0.5 -0.5 -0.276142 -0.5 0V32C-0.5 32.2761 -0.276142 32.5 0 32.5H33C33.2761 32.5 33.5 32.2761 33.5 32V0C33.5 -0.276142 33.2761 -0.5 33 -0.5Z" stroke="#444D56" style="stroke:#444D56;stroke:color(display-p3 0.2667 0.3020 0.3373);stroke-opacity:1;"/>
</g>
<path d="M147 0.5H6C2.96243 0.5 0.5 2.96243 0.5 6V26C0.5 29.0376 2.96243 31.5 6 31.5H147C150.038 31.5 152.5 29.0376 152.5 26V6C152.5 2.96243 150.038 0.5 147 0.5Z" stroke="#444D56" style="stroke:#444D56;stroke:color(display-p3 0.2667 0.3020 0.3373);stroke-opacity:1;"/>
</g>
<defs>
<clipPath id="clip0_28_6431">
<rect width="153" height="32" fill="white" style="fill:white;fill-opacity:1;"/>
</clipPath>
</defs>
</svg>
