<svg width="32" height="32" viewBox="0 0 32 32" fill="none" xmlns="http://www.w3.org/2000/svg">
<g clip-path="url(#clip0_28_6412)">
<mask id="mask0_28_6412" style="mask-type:luminance" maskUnits="userSpaceOnUse" x="0" y="0" width="32" height="32">
<path d="M24 0H8C3.58172 0 0 3.58172 0 8V24C0 28.4183 3.58172 32 8 32H24C28.4183 32 32 28.4183 32 24V8C32 3.58172 28.4183 0 24 0Z" fill="white" style="fill:white;fill-opacity:1;"/>
</mask>
<g mask="url(#mask0_28_6412)">
<path d="M32 0H0V32H32V0Z" fill="black" style="fill:black;fill-opacity:1;"/>
<mask id="mask1_28_6412" style="mask-type:luminance" maskUnits="userSpaceOnUse" x="0" y="0" width="32" height="32">
<path d="M32 0H0V32H32V0Z" fill="white" style="fill:white;fill-opacity:1;"/>
</mask>
<g mask="url(#mask1_28_6412)">
<mask id="mask2_28_6412" style="mask-type:luminance" maskUnits="userSpaceOnUse" x="7" y="2" width="20" height="20">
<path d="M27 2H7V22H27V2Z" fill="white" style="fill:white;fill-opacity:1;"/>
</mask>
<g mask="url(#mask2_28_6412)">
<path d="M24.5002 7.00003H22.8302L21.7702 5.94003C21.3702 5.54003 20.8902 5.34003 20.3302 5.33003H18.2502C18.1302 4.85003 17.8702 4.45003 17.4802 4.14003C17.1002 3.83003 16.6602 3.67003 16.1602 3.66003V8.96003C16.2102 9.83003 16.5202 10.58 17.1002 11.23C18.0702 12.15 19.2102 12.66 20.5502 12.75L23.4202 11.6C24.1402 11.31 24.6202 10.8 24.8602 10.06L25.3302 8.79003C25.3402 8.70003 25.3402 8.61003 25.3302 8.53003V7.83003C25.3302 7.27003 25.0502 7.00003 24.5002 7.00003ZM20.3302 8.66003C19.7702 8.66003 19.5002 8.38003 19.5002 7.83003C19.5002 7.27003 19.7702 7.00003 20.3302 7.00003C20.8802 7.00003 21.1602 7.27003 21.1602 7.83003C21.1602 8.38003 20.8802 8.66003 20.3302 8.66003Z" fill="white" style="fill:white;fill-opacity:1;"/>
<path d="M16.4802 11.78C15.8802 11.13 15.5202 10.37 15.3902 9.5H12.0002C11.5202 9.53 11.1202 9.37 10.7802 9.04C10.4502 8.7 10.3002 8.3 10.3302 7.83C10.3302 7.27 10.0502 7 9.50016 7C8.94016 7 8.66016 7.27 8.66016 7.83C8.67016 8.41 8.80016 8.97 9.06016 9.5C9.35016 10.05 9.77016 10.48 10.3302 10.77V20.33H12.8302V16.16H17.8302V20.33H20.3302V13.55C18.8302 13.44 17.5402 12.84 16.4802 11.78Z" fill="white" style="fill:white;fill-opacity:1;"/>
</g>
<path fill-rule="evenodd" clip-rule="evenodd" d="M5.19969 27.27H6.47969L6.64969 28H7.48969L6.30969 23.23H5.39969L4.17969 28H5.01969L5.19969 27.27ZM15.4097 24.43H14.7497V25.24H15.4097V28H16.2297V25.24H16.8897V24.43H16.2297V23.23H15.4097V24.43ZM17.9797 27.9C18.1397 27.9666 18.323 28 18.5297 28H20.1197V23.23H19.3397V24.52C19.1797 24.46 19.003 24.43 18.8097 24.43H18.5297C18.323 24.43 18.1397 24.4633 17.9797 24.53C17.8264 24.59 17.693 24.67 17.5797 24.77C17.573 24.7766 17.5664 24.7833 17.5597 24.79C17.5464 24.8033 17.5297 24.82 17.5097 24.84C17.423 24.94 17.353 25.06 17.2997 25.2C17.2397 25.3533 17.2097 25.53 17.2097 25.73V26.69C17.2097 26.89 17.2397 27.07 17.2997 27.23C17.353 27.3633 17.423 27.48 17.5097 27.58C17.523 27.6 17.5397 27.62 17.5597 27.64C17.5797 27.66 17.603 27.68 17.6297 27.7C17.7297 27.7866 17.8464 27.8533 17.9797 27.9ZM10.1197 24.53C9.95302 24.4633 9.76969 24.43 9.56969 24.43H7.96969V29.21H8.77969V27.9C8.95302 27.9666 9.13969 28 9.33969 28H9.56969C9.76969 28 9.95302 27.9666 10.1197 27.9C10.2597 27.8533 10.3797 27.78 10.4797 27.68C10.4997 27.6666 10.5164 27.6533 10.5297 27.64C10.5497 27.62 10.573 27.5966 10.5997 27.57C10.6797 27.47 10.743 27.3566 10.7897 27.23C10.8497 27.07 10.8797 26.89 10.8797 26.69V25.73C10.8797 25.53 10.8497 25.3533 10.7897 25.2C10.743 25.0666 10.6764 24.95 10.5897 24.85C10.5697 24.83 10.5497 24.81 10.5297 24.79C10.4164 24.6766 10.2797 24.59 10.1197 24.53ZM11.3697 25.31C11.323 25.43 11.2997 25.56 11.2997 25.7V26.78C11.2997 26.96 11.3297 27.1233 11.3897 27.27C11.4497 27.4166 11.5297 27.5433 11.6297 27.65C11.6364 27.6566 11.6397 27.66 11.6397 27.66C11.673 27.6933 11.7097 27.7266 11.7497 27.76C11.8297 27.82 11.9164 27.87 12.0097 27.91C12.0564 27.9366 12.103 27.9566 12.1497 27.97C12.2497 27.9966 12.353 28.01 12.4597 28.01H14.2697V27.22H12.6397C12.4864 27.22 12.363 27.1866 12.2697 27.12C12.2564 27.1133 12.2464 27.1066 12.2397 27.1C12.1664 27.0266 12.1297 26.9133 12.1297 26.76V26.57H14.3997V25.67C14.3997 25.53 14.373 25.3866 14.3197 25.24C14.2797 25.1333 14.2264 25.0333 14.1597 24.94C14.1397 24.9066 14.1164 24.8733 14.0897 24.84C14.0764 24.82 14.0597 24.8 14.0397 24.78C13.953 24.6866 13.8497 24.61 13.7297 24.55C13.7297 24.5433 13.7264 24.54 13.7197 24.54C13.5864 24.4666 13.4297 24.43 13.2497 24.43H12.4497C12.3097 24.43 12.1697 24.4633 12.0297 24.53C11.983 24.5566 11.9364 24.5833 11.8897 24.61C11.803 24.67 11.7264 24.7366 11.6597 24.81C11.6464 24.8233 11.6364 24.8366 11.6297 24.85C11.5364 24.9566 11.4597 25.0766 11.3997 25.21C11.3864 25.2433 11.3764 25.2766 11.3697 25.31ZM22.6797 24.53C22.5197 24.4633 22.3364 24.43 22.1297 24.43H21.8497C21.643 24.43 21.4597 24.4633 21.2997 24.53C21.133 24.59 20.993 24.6766 20.8797 24.79C20.8597 24.81 20.8397 24.83 20.8197 24.85C20.733 24.95 20.6664 25.0666 20.6197 25.2C20.5664 25.3533 20.5397 25.53 20.5397 25.73V26.69C20.5397 26.89 20.5664 27.07 20.6197 27.23C20.6664 27.3566 20.7297 27.47 20.8097 27.57C20.8297 27.5966 20.853 27.62 20.8797 27.64C20.893 27.6533 20.9064 27.6666 20.9197 27.68C21.0264 27.7733 21.153 27.8466 21.2997 27.9C21.4597 27.9666 21.643 28 21.8497 28H22.1297C22.3364 28 22.5197 27.9666 22.6797 27.9C22.8197 27.8533 22.943 27.78 23.0497 27.68C23.063 27.6666 23.0764 27.6533 23.0897 27.64C23.1097 27.62 23.1297 27.6 23.1497 27.58C23.2364 27.48 23.3064 27.3633 23.3597 27.23C23.4197 27.07 23.4497 26.89 23.4497 26.69V25.73C23.4497 25.53 23.4197 25.3533 23.3597 25.2C23.3064 25.06 23.233 24.94 23.1397 24.84C23.1264 24.82 23.1097 24.8033 23.0897 24.79C22.9764 24.6766 22.8397 24.59 22.6797 24.53ZM26.8297 28V24.43H25.0197C24.893 24.43 24.7697 24.45 24.6497 24.49C24.6297 24.4966 24.6064 24.5033 24.5797 24.51C24.5264 24.5366 24.473 24.5633 24.4197 24.59C24.3464 24.6366 24.283 24.69 24.2297 24.75C24.123 24.8633 24.0397 24.9966 23.9797 25.15C23.9197 25.3033 23.8897 25.4833 23.8897 25.69V26.62C23.8897 26.8266 23.9197 27.01 23.9797 27.17C24.0397 27.3233 24.123 27.4533 24.2297 27.56C24.283 27.62 24.343 27.67 24.4097 27.71C24.463 27.75 24.5197 27.78 24.5797 27.8C24.6064 27.8066 24.6297 27.8166 24.6497 27.83C24.7697 27.8633 24.893 27.88 25.0197 27.88H26.0697V27.92C26.0697 28.0466 26.0397 28.15 25.9797 28.23C25.9597 28.2566 25.9397 28.28 25.9197 28.3C25.893 28.3266 25.863 28.35 25.8297 28.37C25.7497 28.41 25.6597 28.43 25.5597 28.43H24.0897V29.21H25.6997C25.8664 29.21 26.0197 29.18 26.1597 29.12C26.2597 29.0866 26.3497 29.0366 26.4297 28.97C26.4564 28.9433 26.483 28.9166 26.5097 28.89C26.6097 28.7833 26.6864 28.6566 26.7397 28.51C26.7997 28.3633 26.8297 28.1933 26.8297 28ZM6.31969 26.56H5.36969L5.82969 24.61H5.87969L6.31969 26.56ZM25.1997 25.21H26.0597V27.11H25.1997C25.1597 27.11 25.1197 27.1033 25.0797 27.09C25.053 27.0833 25.0264 27.0733 24.9997 27.06C24.9797 27.0533 24.963 27.0433 24.9497 27.03C24.9097 27.0033 24.873 26.9733 24.8397 26.94C24.793 26.8866 24.7564 26.8266 24.7297 26.76C24.7297 26.7533 24.7264 26.75 24.7197 26.75C24.6997 26.6833 24.6897 26.61 24.6897 26.53V25.78C24.6897 25.7 24.703 25.6266 24.7297 25.56C24.7497 25.52 24.7697 25.48 24.7897 25.44C24.803 25.42 24.8197 25.4 24.8397 25.38C24.8797 25.3333 24.923 25.2966 24.9697 25.27C24.983 25.2633 24.993 25.26 24.9997 25.26C25.0264 25.24 25.0564 25.2266 25.0897 25.22C25.123 25.2133 25.1597 25.21 25.1997 25.21ZM8.77969 26.67V25.24H9.56969C9.66302 25.24 9.74969 25.26 9.82969 25.3C9.86969 25.32 9.90635 25.3466 9.93969 25.38C9.96635 25.4066 9.98969 25.44 10.0097 25.48C10.0564 25.56 10.0797 25.65 10.0797 25.75V26.67C10.0797 26.77 10.0597 26.86 10.0197 26.94C9.99969 26.98 9.97302 27.0133 9.93969 27.04C9.89969 27.08 9.85969 27.11 9.81969 27.13C9.74635 27.17 9.66302 27.19 9.56969 27.19H9.28969C9.18969 27.19 9.10302 27.17 9.02969 27.13C8.98969 27.1033 8.95302 27.0733 8.91969 27.04C8.89302 27.0133 8.87302 26.9866 8.85969 26.96C8.80635 26.8733 8.77969 26.7766 8.77969 26.67ZM19.3397 25.75V27.19H18.5297C18.443 27.19 18.363 27.1733 18.2897 27.14C18.2364 27.12 18.1897 27.0866 18.1497 27.04C18.103 27.0066 18.0697 26.9666 18.0497 26.92C18.0097 26.8466 17.9897 26.7633 17.9897 26.67V25.75C17.9897 25.6566 18.0097 25.5733 18.0497 25.5C18.0764 25.4533 18.1097 25.4133 18.1497 25.38C18.1897 25.34 18.233 25.31 18.2797 25.29C18.353 25.2566 18.4364 25.24 18.5297 25.24H18.8097C18.903 25.24 18.9864 25.2566 19.0597 25.29C19.1064 25.31 19.1497 25.34 19.1897 25.38C19.223 25.4133 19.253 25.45 19.2797 25.49C19.3197 25.57 19.3397 25.6566 19.3397 25.75ZM21.6197 25.28C21.6864 25.2533 21.763 25.24 21.8497 25.24H22.1297C22.2297 25.24 22.3164 25.26 22.3897 25.3C22.4297 25.32 22.4664 25.3466 22.4997 25.38C22.5264 25.4066 22.5497 25.4366 22.5697 25.47C22.6164 25.55 22.6397 25.6433 22.6397 25.75V26.67C22.6397 26.7766 22.6164 26.87 22.5697 26.95C22.5497 26.9833 22.5264 27.0133 22.4997 27.04C22.4664 27.08 22.4297 27.11 22.3897 27.13C22.3164 27.17 22.2297 27.19 22.1297 27.19H21.8497C21.763 27.19 21.6864 27.1733 21.6197 27.14C21.5664 27.12 21.5197 27.0866 21.4797 27.04C21.4464 27.0066 21.4164 26.97 21.3897 26.93C21.3497 26.8566 21.3297 26.77 21.3297 26.67V25.75C21.3297 25.65 21.3497 25.5633 21.3897 25.49C21.4164 25.45 21.4464 25.4133 21.4797 25.38C21.5197 25.34 21.5664 25.3066 21.6197 25.28ZM13.5797 25.91H12.1397V25.87C12.1397 25.7966 12.1497 25.7266 12.1697 25.66C12.1697 25.6533 12.1697 25.6433 12.1697 25.63C12.1964 25.5566 12.233 25.49 12.2797 25.43C12.2997 25.4033 12.323 25.38 12.3497 25.36C12.3697 25.3333 12.3964 25.3133 12.4297 25.3C12.4497 25.2866 12.4697 25.2766 12.4897 25.27C12.5364 25.25 12.583 25.24 12.6297 25.24H13.0697C13.1564 25.24 13.2364 25.26 13.3097 25.3C13.3564 25.3333 13.3997 25.3733 13.4397 25.42C13.453 25.4333 13.463 25.4466 13.4697 25.46C13.543 25.5733 13.5797 25.71 13.5797 25.87V25.91Z" fill="white" style="fill:white;fill-opacity:1;"/>
</g>
</g>
</g>
<defs>
<clipPath id="clip0_28_6412">
<rect width="32" height="32" fill="white" style="fill:white;fill-opacity:1;"/>
</clipPath>
</defs>
</svg>
